Coordinates
version=1
nRows=14
nColumns=24
inDegrees=yes

Units are S.I. units (second, meters, Newtons, ...)
Angles are in degrees.

endheader
time	pelvis_tilt	pelvis_list	pelvis_rotation	pelvis_tx	pelvis_ty	pelvis_tz	hip_flexion_r	hip_adduction_r	hip_rotation_r	knee_angle_r	ankle_angle_r	subtalar_angle_r	mtp_angle_r	hip_flexion_l	hip_adduction_l	hip_rotation_l	knee_angle_l	ankle_angle_l	subtalar_angle_l	mtp_angle_l	lumbar_extension	lumbar_bending	lumbar_rotation
      1.50000000	      8.46199810	     -0.10169216	     -2.84215793	      0.60324074	      1.04024808	      0.00403486	      1.94436653	     -8.10178651	     -9.07053745	    -66.45988232	     -4.41096691	     -0.00000135	      0.00000000	      4.44854504	      2.57213353	     -3.39630508	    -17.16346933	      3.12654958	      0.00000500	      0.00000000	    -23.38492075	     -3.58767381	     -2.87212415
      1.51700000	      8.55593621	     -0.41647087	     -2.19822359	      0.60203540	      1.04305180	      0.00157310	      4.12494257	     -7.63060477	     -9.33686101	    -67.46631673	     -2.55701454	     -0.00000128	      0.00000000	      2.57086365	      2.47064718	     -2.54383917	    -15.83904216	      3.51122746	      0.00000483	      0.00000000	    -23.49654147	     -2.88338229	     -3.54354685
      1.53300000	      8.64071755	     -0.72711853	     -1.63807529	      0.60092568	      1.04550544	     -0.00076583	      6.17702787	     -7.02686741	     -9.42482117	    -67.64882013	     -1.15491501	     -0.00000101	      0.00000000	      0.62421478	      2.33210095	     -1.79068969	    -14.35874272	      3.82406988	      0.00000453	      0.00000000	    -23.61141214	     -2.22362178	     -4.41632281
      1.55000000	      8.49854527	     -0.84569873	     -1.24813596	      0.59867425	      1.04672859	     -0.00266126	      8.54664768	     -6.58748683	     -9.37172096	    -67.33134030	     -0.13843968	     -0.00000024	      0.00000000	     -0.83083744	      2.33694762	     -1.29307592	    -13.23341299	      4.21008744	      0.00000442	      0.00000000	    -23.59225767	     -1.86785562	     -4.88089696
      1.56700000	      8.57204175	     -1.25518962	     -0.45326260	      0.59742571	      1.04824849	     -0.00465928	     10.15827407	     -5.82394313	     -9.81686365	    -65.85981197	      0.47798289	      0.00000052	      0.00000000	     -2.64549367	      1.96909560	     -0.37626295	    -11.94764012	      4.61932547	      0.00000428	      0.00000000	    -23.69734482	     -1.07248053	     -5.59910650
      1.58300000	      8.55527572	     -1.48718850	      0.00139420	      0.59551577	      1.04893879	     -0.00611214	     11.86299204	     -5.25100347	     -9.98243299	    -63.84450137	      0.90126567	      0.00000140	      0.00000000	     -4.22912369	      1.75757871	      0.19847178	    -10.85971462	      5.05785761	      0.00000420	      0.00000000	    -23.78754942	     -0.60624757	     -6.09577492
      1.60000000	      8.58765510	     -1.72448097	      0.26878634	      0.59444474	      1.04937314	     -0.00728861	     13.22671928	     -4.64044881	    -10.01128041	    -61.03227810	      1.19964161	      0.00000199	      0.00000000	     -6.09678232	      1.52675491	      0.64074076	     -9.40769632	      5.39976465	      0.00000399	      0.00000000	    -23.87182665	     -0.12866775	     -6.27752599
      1.61700000	      8.54277646	     -1.73300660	      0.61961007	      0.59166436	      1.04901027	     -0.00844185	     14.53937539	     -4.38495068	    -10.26585228	    -57.62618238	      1.47827371	      0.00000224	      0.00000000	     -7.60997115	      1.50246670	      1.20096936	     -8.26554046	      5.72880404	      0.00000380	      0.00000000	    -24.09586857	      0.04461355	     -6.47415234
      1.63300000	      8.24638642	     -1.83264114	      0.75542193	      0.58972357	      1.04763929	     -0.00924326	     15.81084217	     -4.07632453	    -10.59114513	    -53.51329138	      1.70581315	      0.00000216	      0.00000000	     -8.80190120	      1.40469212	      1.47525873	     -7.37956909	      6.31658903	      0.00000372	      0.00000000	    -23.82083336	      0.30969594	     -6.61814833
      1.65000000	      8.11880533	     -1.60947567	      0.69952999	      0.58741447	      1.04602166	     -0.00998898	     16.65313648	     -4.12974133	    -10.90788604	    -48.75374692	      1.90170036	      0.00000152	      0.00000000	    -10.26431861	      1.68231173	      1.54601246	     -6.27041967	      6.71520321	      0.00000356	      0.00000000	    -23.83682172	      0.22009233	     -6.64164567
      1.66700000	      8.14617363	     -1.53940688	      0.77720823	      0.58594912	      1.04438216	     -0.01029494	     16.81828962	     -4.03534721	    -11.75483571	    -43.11773549	      1.84709528	      0.00000080	      0.00000000	    -11.98481808	      1.71928603	      1.71147049	     -5.07564395	      7.15467742	      0.00000351	      0.00000000	    -24.00814423	      0.26859247	     -6.60699057
      1.68300000	      7.96867930	     -1.17644307	      0.66912408	      0.58408142	      1.04154502	     -0.01070978	     17.13967026	     -4.16009599	    -12.40799479	    -37.22533635	      1.62873777	      0.00000026	      0.00000000	    -13.23091675	      2.12376146	      1.77343816	     -4.41009806	      7.86373774	      0.00000355	      0.00000000	    -23.96428248	      0.00574920	     -6.66005581
      1.70000000	      7.70824801	     -0.87421047	      0.62280100	      0.58313810	      1.03829968	     -0.01065963	     17.14899536	     -4.03923516	    -13.03563001	    -30.72379991	      1.28140244	      0.00000001	      0.00000000	    -14.56509048	      2.40666762	      1.92728660	     -3.50180071	      8.49437389	      0.00000354	      0.00000000	    -23.73316510	     -0.21384440	     -6.74614538
      1.71700000	      7.87969140	     -0.36151850	      0.52664406	      0.58182074	      1.03543056	     -0.01040218	     16.53206722	     -3.94100054	    -13.07011568	    -23.93943219	      0.81210483	      0.00000017	      0.00000000	    -16.28891489	      2.93081180	      2.06068124	     -2.71548066	      9.07142316	      0.00000340	      0.00000000	    -24.07771053	     -0.70776820	     -6.76161420
